<svg width="20" height="25" viewBox="0 0 20 25" fill="none" xmlns="http://www.w3.org/2000/svg">
<path id="XMLID_505_" d="M1.30435 25H18.6957C19.416 25 20 24.4912 20 23.8636V10.9848C20 10.3573 19.416 9.84848 18.6957 9.84848H17.3913V6.43939C17.3913 2.88871 14.0756 0 10 0C5.92443 0 2.6087 2.88871 2.6087 6.43939V9.84848H1.30435C0.584 9.84848 0 10.3573 0 10.9848V23.8636C0 24.4912 0.584 25 1.30435 25ZM13.694 16.6179L9.99835 19.8376C9.74365 20.0595 9.40983 20.1705 9.07609 20.1705C8.74235 20.1705 8.40843 20.0595 8.15383 19.8376L6.306 18.2277C5.79661 17.7839 5.79661 17.0645 6.306 16.6207C6.8153 16.1769 7.64122 16.1769 8.15061 16.6207L9.07617 17.427L11.8496 15.0108C12.3589 14.567 13.1848 14.567 13.6942 15.0108C14.2035 15.4547 14.2035 16.1741 13.694 16.6179ZM5.21739 6.43939C5.21739 4.14189 7.36287 2.27273 10 2.27273C12.6371 2.27273 14.7826 4.14189 14.7826 6.43939V9.84848H5.21739V6.43939Z" fill="#E022FF"/>
</svg>
