<svg width="22" height="22" viewBox="0 0 22 22" fill="none" xmlns="http://www.w3.org/2000/svg">
<g id="reload (1) 1">
<g id="Group">
<path id="Vector" d="M19.1498 3.70012C18.68 3.70012 18.2998 4.08078 18.2998 4.55018V5.40322C16.7214 3.30323 14.2182 2 11.4993 2C7.5022 2 4.09277 4.71909 3.20871 8.61203C3.10492 9.06987 3.39215 9.52559 3.84957 9.62938C3.9135 9.64391 3.97657 9.65055 4.03879 9.65055C4.42651 9.65055 4.77758 9.3832 4.86726 8.98894C5.57375 5.87509 8.30159 3.70012 11.4993 3.70012C13.9514 3.70012 16.176 5.03089 17.3768 7.10036H15.7496C15.2797 7.10036 14.8995 7.48102 14.8995 7.95042C14.8995 8.41983 15.2797 8.80048 15.7496 8.80048H19.1498C19.6196 8.80048 19.9999 8.41983 19.9999 7.95042V4.55018C19.9999 4.08078 19.6196 3.70012 19.1498 3.70012Z" fill="white"/>
<path id="Vector_2" d="M3.85006 17.301C4.31989 17.301 4.70012 16.9204 4.70012 16.451V15.5795C6.28701 17.7133 8.77038 19.0011 11.5006 19.0011C15.4977 19.0011 18.9071 16.282 19.7912 12.3891C19.895 11.9313 19.6077 11.4756 19.1503 11.3718C18.688 11.2651 18.2363 11.5544 18.1325 12.0122C17.4261 15.1261 14.6983 17.301 11.5006 17.301C9.04767 17.301 6.84397 16.0025 5.6283 13.9008H7.2503C7.72013 13.9008 8.10036 13.5201 8.10036 13.0507C8.10036 12.5813 7.72013 12.2007 7.2503 12.2007H3.85006C3.38023 12.2007 3 12.5813 3 13.0507V16.451C3 16.9204 3.38023 17.301 3.85006 17.301Z" fill="white"/>
</g>
</g>
</svg>
